<svg width="36" height="36" viewBox="0 0 36 36" fill="none" xmlns="http://www.w3.org/2000/svg">
<path d="M12.9998 18C12.9998 18.9205 12.2536 19.6667 11.3332 19.6667C10.4127 19.6667 9.6665 18.9205 9.6665 18C9.6665 17.0795 10.4127 16.3333 11.3332 16.3333C12.2536 16.3333 12.9998 17.0795 12.9998 18Z" fill="#536471"/>
<path d="M19.6665 18C19.6665 18.9205 18.9203 19.6667 17.9998 19.6667C17.0794 19.6667 16.3332 18.9205 16.3332 18C16.3332 17.0795 17.0794 16.3333 17.9998 16.3333C18.9203 16.3333 19.6665 17.0795 19.6665 18Z" fill="#536471"/>
<path d="M24.6665 19.6667C25.587 19.6667 26.3332 18.9205 26.3332 18C26.3332 17.0795 25.587 16.3333 24.6665 16.3333C23.746 16.3333 22.9998 17.0795 22.9998 18C22.9998 18.9205 23.746 19.6667 24.6665 19.6667Z" fill="#536471"/>
</svg>
