<svg width="20" height="20" viewBox="0 0 20 20" fill="none" xmlns="http://www.w3.org/2000/svg">
<path d="M4.99984 10C4.99984 10.9205 4.25365 11.6667 3.33317 11.6667C2.4127 11.6667 1.6665 10.9205 1.6665 10C1.6665 9.07952 2.4127 8.33333 3.33317 8.33333C4.25365 8.33333 4.99984 9.07952 4.99984 10Z" fill="#536471"/>
<path d="M11.6665 10C11.6665 10.9205 10.9203 11.6667 9.99984 11.6667C9.07936 11.6667 8.33317 10.9205 8.33317 10C8.33317 9.07952 9.07936 8.33333 9.99984 8.33333C10.9203 8.33333 11.6665 9.07952 11.6665 10Z" fill="#536471"/>
<path d="M16.6665 11.6667C17.587 11.6667 18.3332 10.9205 18.3332 10C18.3332 9.07952 17.587 8.33333 16.6665 8.33333C15.746 8.33333 14.9998 9.07952 14.9998 10C14.9998 10.9205 15.746 11.6667 16.6665 11.6667Z" fill="#536471"/>
</svg>
