<svg width="24" height="24" viewBox="0 0 24 24" fill="none" xmlns="http://www.w3.org/2000/svg">
<g clip-path="url(#clip0_404_680)">
<path fill-rule="evenodd" clip-rule="evenodd" d="M5.75873 1H13.2413C14.0463 0.999988 14.7107 0.999977 15.2519 1.04419C15.814 1.09012 16.3307 1.18868 16.816 1.43597C17.5686 1.81947 18.1806 2.43139 18.5641 3.18404C18.8113 3.66937 18.9099 4.18608 18.9558 4.74817C19.0001 5.28936 19 5.95372 19 6.75868V10.0047C19.3716 10.0085 19.7672 10.0154 20.1463 10.0278C20.5711 10.0417 20.9906 10.0629 21.3392 10.0966C21.5128 10.1133 21.6836 10.1345 21.836 10.1626C21.9622 10.1859 22.1711 10.2297 22.362 10.327C22.9265 10.6146 23.3854 11.0735 23.673 11.638C23.8658 12.0164 23.9372 12.4096 23.9695 12.805C24.0001 13.1795 24 13.6343 24 14.1614V17.9463C24 18.3849 24.0001 18.7634 23.9787 19.0767C23.9562 19.4065 23.9067 19.7364 23.7717 20.0623C23.4672 20.7974 22.8832 21.3814 22.1481 21.6859C21.9726 21.7586 21.7803 21.7879 21.6745 21.8027C21.5391 21.8216 21.3844 21.836 21.2248 21.8475C20.9041 21.8706 20.514 21.8853 20.1188 21.895C19.7448 21.9041 19.3556 21.9089 19 21.9115V23C19 23.3723 18.7932 23.7138 18.4633 23.8862C18.1333 24.0587 17.7349 24.0336 17.4292 23.8211L15.2528 22.3079C14.9176 22.0749 14.8497 22.0324 14.7857 22.0034C14.7118 21.9699 14.6341 21.9455 14.5544 21.9308C14.4852 21.9181 14.4052 21.9143 13.9969 21.9143H12.1615C11.6343 21.9143 11.1796 21.9143 10.805 21.8837C10.4097 21.8514 10.0164 21.7801 9.63806 21.5873C9.07357 21.2997 8.61463 20.8407 8.32701 20.2763C8.13422 19.8979 8.0629 19.5047 8.0306 19.1093C8 18.7347 8.00001 18.28 8.00003 17.7528L8.00003 17.4356L6.61004 18.843C6.41849 19.037 6.23062 19.2272 6.06596 19.3669C5.91972 19.4909 5.61021 19.7413 5.17978 19.7771C4.69995 19.8169 4.23016 19.624 3.9168 19.2585C3.63567 18.9306 3.59142 18.5349 3.57452 18.3439C3.5555 18.1289 3.55554 17.8615 3.55558 17.5889L3.55559 16.0111C3.53636 15.9951 3.49179 15.9682 3.4203 15.9578C1.67169 15.7016 0.298398 14.3283 0.0422636 12.5797C-0.00021762 12.2897 -0.000118675 11.9625 1.46006e-05 11.5208C2.223e-05 11.4958 2.99786e-05 11.4703 2.99786e-05 11.4444L2.95018e-05 6.7587C1.67464e-05 5.95373 6.25476e-06 5.28937 0.0442236 4.74818C0.0901488 4.18608 0.188713 3.66937 0.436004 3.18404C0.819497 2.43139 1.43142 1.81947 2.18407 1.43597C2.6694 1.18868 3.18611 1.09012 3.7482 1.04419C4.2894 0.999977 4.95376 0.999988 5.75873 1ZM10 14.9994C10 14.9998 10 15.0003 10 15.0007V17.7143C10 18.2908 10.0008 18.6631 10.024 18.9465C10.0462 19.2181 10.0838 19.3188 10.109 19.3683C10.2049 19.5564 10.3579 19.7094 10.546 19.8053C10.5955 19.8305 10.6962 19.8682 10.9679 19.8904C11.2512 19.9135 11.6235 19.9143 12.2 19.9143H13.9969C14.0181 19.9143 14.0391 19.9143 14.06 19.9143C14.3707 19.914 14.6448 19.9138 14.9169 19.964C15.1561 20.0081 15.3892 20.0811 15.6108 20.1815C15.8628 20.2956 16.0878 20.4523 16.3428 20.6298C16.3598 20.6417 16.3771 20.6537 16.3945 20.6658L17 21.0868V20.9143C17 20.362 17.4477 19.9143 18 19.9143C18.4673 19.9143 19.305 19.9142 20.0699 19.8956C20.4536 19.8862 20.8071 19.8724 21.0813 19.8526C21.2191 19.8427 21.3247 19.8321 21.3981 19.8219C21.4108 19.8201 21.4214 19.8185 21.43 19.8171C21.6528 19.711 21.829 19.526 21.9239 19.297C21.9411 19.2554 21.9678 19.1685 21.9833 18.9405C21.9995 18.7035 22 18.3939 22 17.9143V14.2C22 13.6234 21.9993 13.2512 21.9761 12.9678C21.9539 12.6962 21.9162 12.5955 21.891 12.546C21.8034 12.3741 21.6681 12.2315 21.5019 12.1351C21.494 12.1334 21.4845 12.1315 21.4733 12.1295C21.3994 12.1158 21.2912 12.1012 21.1471 12.0873C20.8604 12.0597 20.4896 12.0401 20.081 12.0267C19.2663 12.0001 18.3623 12 17.8 12H12.2C11.6235 12 11.2512 12.0008 10.9679 12.0239C10.6962 12.0461 10.5955 12.0838 10.546 12.109C10.3579 12.2049 10.2049 12.3578 10.109 12.546C10.0838 12.5955 10.0462 12.6962 10.024 12.9678C10.0008 13.2512 10 13.6234 10 14.2V14.9994ZM8.00003 14.5894L5.55559 17.0644V15.9916C5.55559 14.8142 4.59832 14.109 3.71017 13.9789C2.83586 13.8508 2.14921 13.1642 2.02115 12.2899C2.00269 12.1639 2.00003 11.9959 2.00003 11.4444V6.8C2.00003 5.94342 2.00081 5.36113 2.03758 4.91104C2.0734 4.47262 2.13833 4.24842 2.21802 4.09202C2.40976 3.7157 2.71572 3.40973 3.09205 3.21799C3.24845 3.1383 3.47265 3.07337 3.91107 3.03755C4.36116 3.00078 4.94345 3 5.80003 3H13.2C14.0566 3 14.6389 3.00078 15.089 3.03755C15.5274 3.07337 15.7516 3.1383 15.908 3.21799C16.2843 3.40973 16.5903 3.7157 16.782 4.09202C16.8617 4.24842 16.9267 4.47262 16.9625 4.91104C16.9993 5.36113 17 5.94342 17 6.8V10L12.1615 10C11.6343 9.99998 11.1796 9.99997 10.805 10.0306C10.4097 10.0629 10.0164 10.1342 9.63806 10.327C9.07357 10.6146 8.61463 11.0735 8.32701 11.638C8.13422 12.0164 8.0629 12.4096 8.0306 12.805C8 13.1795 8.00001 13.6343 8.00003 14.1615L8.00003 14.5894Z" fill="#0F1419"/>
</g>
<defs>
<clipPath id="clip0_404_680">
<rect width="24" height="24" fill="white"/>
</clipPath>
</defs>
</svg>
