<svg width="24" height="24" viewBox="0 0 24 24" fill="none" xmlns="http://www.w3.org/2000/svg">
<path fill-rule="evenodd" clip-rule="evenodd" d="M12.0001 4C10.0671 4 8.50008 5.567 8.50008 7.5C8.50008 9.433 10.0671 11 12.0001 11C13.9331 11 15.5001 9.433 15.5001 7.5C15.5001 5.567 13.9331 4 12.0001 4ZM6.50008 7.5C6.50008 4.46243 8.96252 2 12.0001 2C15.0376 2 17.5001 4.46243 17.5001 7.5C17.5001 10.5376 15.0376 13 12.0001 13C8.96252 13 6.50008 10.5376 6.50008 7.5ZM8.32635 14.5C8.38341 14.5 8.44132 14.5 8.50009 14.5H15.5001C15.5589 14.5 15.6168 14.5 15.6738 14.5C16.9011 14.4995 17.7391 14.4992 18.4515 14.7153C20.0495 15.2 21.3 16.4506 21.7848 18.0486C22.0009 18.761 22.0006 19.599 22.0001 20.8263C22.0001 20.8833 22.0001 20.9412 22.0001 21C22.0001 21.5523 21.5524 22 21.0001 22C20.4478 22 20.0001 21.5523 20.0001 21C20.0001 19.5317 19.9892 19.0192 19.8709 18.6291C19.5801 17.6703 18.8297 16.92 17.8709 16.6292C17.4809 16.5108 16.9684 16.5 15.5001 16.5H8.50009C7.03177 16.5 6.51929 16.5108 6.12923 16.6292C5.17042 16.92 4.42011 17.6703 4.12926 18.6291C4.01094 19.0192 4.00008 19.5317 4.00008 21C4.00008 21.5523 3.55237 22 3.00008 22C2.4478 22 2.00008 21.5523 2.00008 21C2.00008 20.9412 2.00006 20.8833 2.00004 20.8263C1.99959 19.599 1.99928 18.761 2.21538 18.0486C2.70013 16.4506 3.95065 15.2 5.54866 14.7153C6.26106 14.4992 7.09908 14.4995 8.32635 14.5Z" fill="#0F1419"/>
</svg>
