<svg width="24" height="24" viewBox="0 0 24 24" fill="none" xmlns="http://www.w3.org/2000/svg">
<path fill-rule="evenodd" clip-rule="evenodd" d="M8 1C8.55229 1 9 1.44772 9 2V3H15V2C15 1.44772 15.4477 1 16 1C16.5523 1 17 1.44772 17 2V3.00163C17.4755 3.00489 17.891 3.01471 18.2518 3.04419C18.8139 3.09012 19.3306 3.18868 19.816 3.43597C20.5686 3.81947 21.1805 4.43139 21.564 5.18404C21.8113 5.66937 21.9099 6.18608 21.9558 6.74817C22 7.28936 22 7.95372 22 8.75868V11C22 11.5523 21.5523 12 21 12C20.4477 12 20 11.5523 20 11H4V17.2C4 18.0566 4.00078 18.6389 4.03755 19.089C4.07337 19.5274 4.1383 19.7516 4.21799 19.908C4.40973 20.2843 4.7157 20.5903 5.09202 20.782C5.24842 20.8617 5.47262 20.9266 5.91104 20.9624C6.36113 20.9992 6.94342 21 7.8 21H11.5C12.0523 21 12.5 21.4477 12.5 22C12.5 22.5523 12.0523 23 11.5 23H7.75868C6.95372 23 6.28936 23 5.74818 22.9558C5.18608 22.9099 4.66937 22.8113 4.18404 22.564C3.43139 22.1805 2.81947 21.5686 2.43598 20.816C2.18868 20.3306 2.09012 19.8139 2.04419 19.2518C1.99998 18.7106 1.99999 18.0463 2 17.2413V8.7587C1.99999 7.95374 1.99998 7.28937 2.04419 6.74817C2.09012 6.18608 2.18868 5.66937 2.43598 5.18404C2.81947 4.43139 3.43139 3.81947 4.18404 3.43597C4.66937 3.18868 5.18608 3.09012 5.74818 3.04419C6.10898 3.01471 6.52454 3.00489 7 3.00163V2C7 1.44772 7.44772 1 8 1ZM7 5.00176C6.55447 5.00489 6.20463 5.01356 5.91104 5.03755C5.47262 5.07337 5.24842 5.1383 5.09202 5.21799C4.7157 5.40973 4.40973 5.71569 4.21799 6.09202C4.1383 6.24842 4.07337 6.47262 4.03755 6.91104C4.00078 7.36113 4 7.94342 4 8.8V9H20V8.8C20 7.94342 19.9992 7.36113 19.9624 6.91104C19.9266 6.47262 19.8617 6.24842 19.782 6.09202C19.5903 5.71569 19.2843 5.40973 18.908 5.21799C18.7516 5.1383 18.5274 5.07337 18.089 5.03755C17.7954 5.01356 17.4455 5.00489 17 5.00176V6C17 6.55228 16.5523 7 16 7C15.4477 7 15 6.55228 15 6V5H9V6C9 6.55228 8.55229 7 8 7C7.44772 7 7 6.55228 7 6V5.00176Z" fill="#0F1419"/>
<path d="M19 16C19 15.4477 18.5523 15 18 15C17.4477 15 17 15.4477 17 16V18C17 18.2652 17.1054 18.5196 17.2929 18.7071L18.2929 19.7071C18.6834 20.0976 19.3166 20.0976 19.7071 19.7071C20.0976 19.3166 20.0976 18.6834 19.7071 18.2929L19 17.5858V16Z" fill="#0F1419"/>
<path fill-rule="evenodd" clip-rule="evenodd" d="M12 18C12 14.6863 14.6863 12 18 12C21.3137 12 24 14.6863 24 18C24 21.3137 21.3137 24 18 24C14.6863 24 12 21.3137 12 18ZM18 14C15.7909 14 14 15.7909 14 18C14 20.2091 15.7909 22 18 22C20.2091 22 22 20.2091 22 18C22 15.7909 20.2091 14 18 14Z" fill="#0F1419"/>
</svg>
