<svg width="24" height="24" viewBox="0 0 24 24" fill="none" xmlns="http://www.w3.org/2000/svg">
<path fill-rule="evenodd" clip-rule="evenodd" d="M6.73861 0.999867C6.75961 0.999933 6.78012 0.999998 6.80007 0.999998H17.2001C17.22 0.999998 17.2405 0.999933 17.2615 0.999867C17.4884 0.999149 17.7739 0.998245 18.0493 1.07689C18.2878 1.14499 18.5115 1.25685 18.709 1.40675C18.9372 1.57986 19.1077 1.80882 19.2433 1.99075C19.2558 2.00759 19.2681 2.02404 19.2801 2.04L20.861 4.14794C20.8752 4.16688 20.8895 4.18588 20.9037 4.2049L21.1601 4.54666C21.1736 4.56468 21.187 4.58253 21.2003 4.60024C21.3984 4.86399 21.5732 5.09667 21.7008 5.36055C21.813 5.5926 21.8949 5.83814 21.9443 6.0911C22.0006 6.37877 22.0004 6.66978 22.0001 6.99964C22.0001 7.0218 22.0001 7.04414 22.0001 7.06666V18.8386C22.0001 19.3657 22.0001 19.8205 21.9695 20.195C21.9372 20.5904 21.8659 20.9836 21.6731 21.362C21.3855 21.9265 20.9265 22.3854 20.362 22.673C19.9837 22.8658 19.5904 22.9371 19.1951 22.9694C18.8205 23 18.3658 23 17.8386 23L6.1615 23C5.63436 23 5.17961 23 4.80504 22.9694C4.40969 22.9371 4.01647 22.8658 3.63809 22.673C3.07361 22.3854 2.61467 21.9265 2.32705 21.362C2.13425 20.9836 2.06294 20.5904 2.03064 20.195C2.00003 19.8205 2.00005 19.3657 2.00007 18.8385L2.00007 7.06666C2.00007 7.04414 2.00005 7.0218 2.00003 6.99964C1.99978 6.66978 1.99956 6.37877 2.0558 6.0911C2.10525 5.83813 2.18709 5.59259 2.29931 5.36055C2.42693 5.09667 2.60171 4.864 2.79983 4.60026C2.81314 4.58254 2.82655 4.56468 2.84007 4.54666L3.09707 4.20399C3.1111 4.18527 3.12513 4.16656 3.13912 4.14792C3.1454 4.13955 3.15166 4.1312 3.15792 4.12286C3.15863 4.12191 3.15935 4.12095 3.16007 4.12L4.72007 2.04C4.73203 2.02404 4.74429 2.0076 4.75684 1.99075C4.89239 1.80882 5.06298 1.57986 5.29112 1.40675C5.48867 1.25685 5.71238 1.14499 5.95084 1.07689C6.22621 0.998245 6.51173 0.999149 6.73861 0.999867ZM6.32007 3.24L5.00007 5H19.0001L17.6801 3.24C17.5859 3.11448 17.5381 3.05129 17.5012 3.00715C17.5002 3.00593 17.4992 3.00476 17.4982 3.00364C17.4968 3.00356 17.4953 3.00347 17.4937 3.00339C17.4362 3.00032 17.357 3 17.2001 3H6.80007C6.64317 3 6.56394 3.00032 6.50647 3.00339C6.50488 3.00347 6.50335 3.00356 6.50189 3.00364C6.50094 3.00476 6.49996 3.00593 6.49894 3.00715C6.462 3.05129 6.4142 3.11448 6.32007 3.24ZM20 6.98921C19.8267 7.00008 19.6284 7.00004 19.435 7L4.60007 7C4.58845 7 4.57682 7 4.56516 7C4.37173 7.00004 4.17348 7.00008 4.00012 6.98921C4.00008 7.01372 4.00007 7.03951 4.00007 7.06666L4.00007 18.8C4.00007 19.3765 4.00084 19.7488 4.02399 20.0322C4.04619 20.3038 4.08387 20.4045 4.10906 20.454C4.20493 20.6421 4.35791 20.7951 4.54608 20.891C4.59552 20.9162 4.69624 20.9539 4.9679 20.9761C5.25124 20.9992 5.62351 21 6.20007 21L17.8001 21C18.3766 21 18.7489 20.9992 19.0322 20.9761C19.3039 20.9539 19.4046 20.9162 19.4541 20.891C19.6422 20.7951 19.7952 20.6421 19.8911 20.454C19.9163 20.4045 19.9539 20.3038 19.9761 20.0322C19.9993 19.7488 20.0001 19.3765 20.0001 18.8V7.06666C20.0001 7.03951 20 7.01372 20 6.98921ZM8.00007 9C8.55235 9 9.00007 9.44771 9.00007 10C9.00007 10.7956 9.31614 11.5587 9.87875 12.1213C10.4414 12.6839 11.2044 13 12.0001 13C12.7957 13 13.5588 12.6839 14.1214 12.1213C14.684 11.5587 15.0001 10.7956 15.0001 10C15.0001 9.44771 15.4478 9 16.0001 9C16.5524 9 17.0001 9.44771 17.0001 10C17.0001 11.3261 16.4733 12.5978 15.5356 13.5355C14.5979 14.4732 13.3261 15 12.0001 15C10.674 15 9.40221 14.4732 8.46453 13.5355C7.52685 12.5978 7.00007 11.3261 7.00007 10C7.00007 9.44771 7.44778 9 8.00007 9Z" fill="#0F1419"/>
</svg>
