<svg width="16" height="16" viewBox="0 0 16 16" fill="none" xmlns="http://www.w3.org/2000/svg">
<g clip-path="url(#clip0_407_44)">
<circle cx="8" cy="8" r="8" fill="#5B19E7"/>
<path d="M5.13903 11.9529L6.06315 10.5997L7.99102 10.5997C9.43002 10.5997 10.5966 9.43577 10.5966 8L11.9529 8C11.9529 10.1831 10.1791 11.9529 7.99102 11.9529L5.13903 11.9529Z" fill="white"/>
<path d="M8.00886 5.40032C6.56986 5.40032 5.40331 6.56424 5.40331 8L4.047 8C4.047 5.81685 5.82079 4.04706 8.00886 4.04706L10.8725 4.04706L9.94836 5.40032L8.00886 5.40032Z" fill="white"/>
<path d="M7.01181 8C7.01181 7.45421 7.45426 7.01176 8.00005 7.01176C8.54583 7.01176 8.98828 7.45421 8.98828 8C8.98828 8.54579 8.54583 8.98824 8.00005 8.98824C7.45426 8.98824 7.01181 8.54579 7.01181 8Z" fill="white"/>
</g>
<defs>
<clipPath id="clip0_407_44">
<rect width="16" height="16" fill="white"/>
</clipPath>
</defs>
</svg>
