<svg width="260" height="200" viewBox="0 0 260 200" fill="none" xmlns="http://www.w3.org/2000/svg">
<g clip-path="url(#clip0_23_2427)">
<path d="M158.25 168.437C165.55 172.187 170.833 185.458 172.563 191.625L91.4998 191.438L92.3749 186L93.8748 184.125L105.125 156.312C104.75 155.417 103.725 153.488 102.625 152.938C86.4248 151.688 75.9581 138.479 72.7498 132.031C72.4477 132.26 71.4248 132.394 69.7498 131.094C67.781 131.25 66.1873 131.219 63.9685 129.312C61.656 129.25 59.9685 127.719 58.906 125.812C56.7498 124.625 55.406 122.562 54.7498 119.594C54.2248 117.219 55.6768 116.188 56.4685 115.969C53.7186 113.354 47.9624 107.994 46.9374 107.469C45.9124 106.944 46.1978 106.042 46.4687 105.656C46.7916 105.406 47.5937 104.713 48.2187 103.938C48.8437 103.162 49.7082 103.177 50.0624 103.281L63.2812 115.469C64.0519 115.594 65.7934 115.594 66.5937 114.594C67.594 113.344 66.1559 111.531 65.5934 108.75C65.0309 105.969 66.9059 103.312 67.8746 103.281C68.8434 103.25 68.6252 105.406 68.5002 107.75C68.3752 110.094 72.8127 113.219 73.969 116.156C75.1252 119.094 74.1252 122.469 73.6565 123.969C77.7065 128.419 85.7607 130.177 89.2815 130.5L92.7499 121.906C92.6145 114.271 92.3499 98.2375 92.3749 95.1875C92.4062 91.375 94.4687 80.1875 101.594 78.7812C108.719 77.375 114.062 83.7812 115.937 85C117.437 85.975 118.021 84.9479 118.125 84.3125C118.167 82.0625 118.3 77.3375 118.5 76.4375C115.075 76.5375 110.698 73.5208 108.937 72L97.7187 69.7812L96.7812 42.6562C104.156 36.4479 118.931 24.0125 119.031 23.9375C119.156 23.8437 152.812 43.7812 152.969 43.9375C153.125 44.0937 154.375 57.4687 154.062 58.3437C153.75 59.2187 148 67.5 147.781 67.7187C147.606 67.8937 140.604 68.25 137.125 68.4062L132.719 72.3125C132.677 75.0312 132.537 81.0562 132.312 83.4062C132.087 85.7562 133.031 85.802 133.531 85.5312C133.26 85.4062 135.563 84.375 138.281 82.6875C143.844 80.2187 148.781 79.5937 153.531 81.9062C158.281 84.2187 160.25 88.4687 160.344 93.125C160.419 96.85 158.604 102.677 157.688 105.125L147.656 130.406L177.75 117.969C177.969 117.406 179.406 116.031 183.406 115.031C188.406 113.781 192.719 116.437 196.25 117.594C199.781 118.75 200.594 117.187 200.594 116.687C200.594 116.187 201.5 114.844 202.281 115.187C203.063 115.531 203.969 118.375 202.281 120.25C200.594 122.125 197.906 121.375 197.125 121.375C196.344 121.375 195.313 121.906 195.406 123.406C195.5 124.906 197.594 127.594 200.25 129.062C202.906 130.531 205.719 129.031 206.563 128.062C207.406 127.094 208.906 127.437 209.219 128.062C206.281 134 200.531 132.594 197.281 132.281C198.688 134.562 204.25 136.625 205.375 137.219C206.5 137.812 206.813 139.406 205.719 139.719C202.569 139.944 196.385 136.854 193.688 135.281C193.583 135.302 193.281 135.444 192.906 135.844C186.581 136.919 181.104 128.833 179.156 124.656C168.26 133.302 146.056 150.987 144.406 152.562C142.756 154.137 139.906 154.76 138.688 154.875C142.167 157.833 150.95 164.687 158.25 168.437Z" fill="white"/>
<path d="M54.6886 67.8807C54.3394 67.9671 53.9733 67.7776 53.855 67.4349C53.3171 65.8996 53.1115 62.528 56.1898 60.7502C58.3584 59.4991 58.5471 56.5176 57.4769 54.3553C56.4517 52.2822 54.0634 50.5853 50.4387 52.0315C46.0592 53.7786 47.6871 59.2511 47.7575 59.4852C47.8702 59.853 47.6618 60.2431 47.29 60.3546C46.9182 60.466 46.5239 60.2598 46.4113 59.892C45.6762 57.504 45.4622 52.5191 49.912 50.7413C54.4352 48.9329 57.4966 51.229 58.7414 53.7423C60.0961 56.4758 59.775 60.2933 56.8995 61.954C54.0606 63.5924 55.1393 66.8414 55.1871 66.9779C55.3111 67.3402 55.1167 67.7386 54.7506 67.8612C54.7309 67.8668 54.7112 67.8724 54.6914 67.878L54.6886 67.8807Z" fill="#FFACA1"/>
<path d="M56.125 74.6964C57.2978 74.6964 58.2486 73.7558 58.2486 72.5954C58.2486 71.4351 57.2978 70.4944 56.125 70.4944C54.9522 70.4944 54.0015 71.4351 54.0015 72.5954C54.0015 73.7558 54.9522 74.6964 56.125 74.6964Z" fill="#FFACA1"/>
<path d="M185.884 45.8316C185.56 45.6728 185.408 45.2938 185.544 44.9566C186.141 43.4436 188.199 40.7463 191.706 41.3761C194.176 41.8191 196.277 39.6708 196.882 37.3413C197.462 35.1066 196.761 32.2811 193.058 31.0523C188.58 29.5671 186.225 34.775 186.127 34.9979C185.972 35.3518 185.555 35.5106 185.2 35.3573C184.845 35.2013 184.682 34.7917 184.837 34.4406C185.845 32.1529 188.957 28.224 193.505 29.7315C198.133 31.2641 198.952 34.9756 198.248 37.6868C197.485 40.6349 194.736 43.3321 191.458 42.747C188.225 42.1674 186.909 45.3328 186.856 45.4666C186.712 45.8232 186.304 45.9988 185.943 45.8567C185.924 45.8483 185.907 45.8399 185.887 45.8316H185.884Z" fill="#FFACA1"/>
<path d="M183.879 52.4438C185.052 52.4438 186.002 51.5031 186.002 50.3428C186.002 49.1825 185.052 48.2418 183.879 48.2418C182.706 48.2418 181.755 49.1825 181.755 50.3428C181.755 51.5031 182.706 52.4438 183.879 52.4438Z" fill="#FFACA1"/>
<path d="M197.248 88.5088C197.048 88.2106 197.108 87.8094 197.395 87.5809C198.676 86.5666 201.819 85.2458 204.543 87.5252C206.461 89.1301 209.365 88.3081 211.063 86.5861C212.693 84.9365 213.513 82.1417 210.925 79.2466C207.796 75.7469 203.126 79.0934 202.929 79.2383C202.616 79.4668 202.174 79.4027 201.943 79.0906C201.715 78.7813 201.777 78.3438 202.093 78.1153C204.123 76.6329 208.801 74.766 211.981 78.3215C215.214 81.9355 214.051 85.5551 212.074 87.5586C209.922 89.7348 206.179 90.7128 203.636 88.5868C201.127 86.4858 198.392 88.5784 198.276 88.6676C197.972 88.9044 197.53 88.8571 197.288 88.5561C197.274 88.5394 197.263 88.5227 197.251 88.506L197.248 88.5088Z" fill="#FFACA1"/>
<path d="M193.238 93.5243C194.411 93.5243 195.361 92.5837 195.361 91.4234C195.361 90.263 194.411 89.3224 193.238 89.3224C192.065 89.3224 191.114 90.263 191.114 91.4234C191.114 92.5837 192.065 93.5243 193.238 93.5243Z" fill="#FFACA1"/>
<path d="M92.8251 121.397H92.8167C92.6223 121.392 92.4674 121.233 92.4731 121.04C92.5069 119.664 92.4055 116.025 92.29 111.815C92.1605 107.161 92.0168 101.886 91.9802 97.4365C91.9154 89.5481 94.4671 79.8067 101.874 78.3187C107.327 77.2236 112.284 81.4061 114.945 83.652C115.607 84.2093 116.179 84.6913 116.46 84.8251C116.936 85.048 117.299 85.034 117.573 84.7805C117.75 84.6133 117.86 84.3514 117.868 84.0616L118.127 76.7472C118.133 76.5549 118.288 76.4016 118.491 76.41C118.685 76.4156 118.837 76.5772 118.832 76.7694L118.572 84.0839C118.556 84.5631 118.373 84.9922 118.054 85.2876C117.773 85.5495 117.15 85.9201 116.156 85.452C115.793 85.2792 115.244 84.8195 114.489 84.1814C111.917 82.0107 107.13 77.976 102.015 79.0014C97.6496 79.8791 92.5857 85.2319 92.6871 97.4309C92.7237 101.875 92.8674 107.144 92.9969 111.795C93.1124 116.017 93.2138 119.664 93.18 121.057C93.1744 121.247 93.0195 121.397 92.8279 121.397H92.8251Z" fill="#5A19E7"/>
<path d="M93.3519 120.806C93.2983 120.806 93.242 120.795 93.1885 120.767C93.0167 120.678 92.9491 120.469 93.0392 120.296C93.0956 120.191 98.6354 109.638 100.12 103.519C100.165 103.333 100.353 103.218 100.545 103.263C100.734 103.308 100.849 103.497 100.804 103.684C99.2972 109.889 93.718 120.514 93.6617 120.622C93.5997 120.742 93.4758 120.809 93.349 120.809L93.3519 120.806Z" fill="#5A19E7"/>
<path d="M91.3466 191.894C91.248 191.894 91.1523 191.852 91.0847 191.78C91.0171 191.707 90.9861 191.607 90.9974 191.51C91.003 191.462 91.5128 186.845 93.0533 182.036C93.1125 181.852 93.3096 181.751 93.4955 181.81C93.6814 181.869 93.7828 182.064 93.7236 182.247C92.4591 186.19 91.8986 189.999 91.7437 191.198L171.985 191.153C171.537 189.436 169.665 182.891 166.009 178.333C165.888 178.182 165.913 177.962 166.065 177.842C166.217 177.722 166.44 177.747 166.561 177.898C170.878 183.284 172.76 191.342 172.777 191.423C172.799 191.526 172.777 191.635 172.709 191.719C172.641 191.802 172.54 191.85 172.433 191.85L91.3438 191.894H91.3466Z" fill="#5A19E7"/>
<path d="M89.5244 130.849C81.0809 130.849 73.6879 124.546 73.3696 124.273C73.2232 124.147 73.2091 123.927 73.3358 123.782C73.4626 123.637 73.6851 123.623 73.8315 123.749C73.9104 123.816 81.7399 130.495 90.1806 130.141C90.375 130.127 90.5383 130.283 90.5468 130.475C90.5552 130.668 90.4031 130.829 90.2088 130.838C89.9807 130.846 89.7497 130.852 89.5216 130.852L89.5244 130.849Z" fill="#5A19E7"/>
<path d="M102.683 153.232C102.683 153.232 102.663 153.232 102.652 153.232C92.1437 152.36 84.4325 146.695 79.8136 142.098C74.8173 137.124 72.2601 132.281 72.2347 132.234C72.1446 132.064 72.2122 131.852 72.3868 131.765C72.5586 131.676 72.7727 131.743 72.86 131.916C72.8853 131.963 75.4032 136.725 80.329 141.624C84.8606 146.132 92.4254 151.686 102.711 152.538C102.905 152.555 103.049 152.722 103.032 152.915C103.015 153.096 102.863 153.235 102.68 153.235L102.683 153.232Z" fill="#5A19E7"/>
<path d="M112.653 119.224C112.472 119.224 112.32 119.087 112.303 118.906C112.115 116.864 112.295 112.717 112.303 112.545C112.312 112.352 112.478 112.199 112.669 112.213C112.864 112.221 113.013 112.383 113.005 112.575C113.005 112.617 112.819 116.847 113.005 118.845C113.021 119.037 112.881 119.207 112.686 119.224C112.675 119.224 112.664 119.224 112.655 119.224H112.653Z" fill="#5A19E7"/>
<path d="M111.853 120.177C111.788 120.177 111.726 120.16 111.667 120.124C111.501 120.021 111.453 119.806 111.554 119.644C111.636 119.516 113.602 116.44 120.831 109.454C120.969 109.321 121.192 109.323 121.33 109.46C121.465 109.597 121.462 109.819 121.324 109.953C114.176 116.861 112.174 119.982 112.154 120.012C112.086 120.118 111.974 120.177 111.856 120.177H111.853Z" fill="#5A19E7"/>
<path d="M112.61 116.73L115.249 115.755L112.734 118.446L112.61 116.73Z" fill="#5A19E7"/>
<path d="M132.919 118.652C132.919 118.652 110.588 115.314 93.1885 119.912C83.2016 134.142 93.9517 141.181 97.1906 141.877C97.1906 141.877 98.2242 147.264 103.879 155.879C95.7824 168.418 91.9803 185.834 91.9803 185.834C91.9803 185.834 105.288 193.218 125.073 191.824C144.858 190.431 145.632 181.515 169.924 183.395C160.066 161.522 139.155 154.904 139.155 154.904C139.155 154.904 133.944 155.879 131.584 152.012C129.224 148.144 129.402 144.382 129.402 144.382C129.402 144.382 128.838 139.924 129.717 133.409C130.669 127.452 132.916 118.647 132.916 118.647L132.919 118.652Z" fill="#FF634D"/>
<path d="M112.435 74.9721C113.807 75.705 115.272 76.2623 116.809 76.6161C121.152 77.6109 125.687 76.8836 129.925 74.5152C133.967 72.2554 137.47 68.6804 140.059 64.1747C140.16 63.9963 140.104 63.7706 139.929 63.6731C139.746 63.5867 139.532 63.6369 139.428 63.818C134.116 73.0634 125.309 77.8032 116.987 75.8972C105.783 73.3309 98.8098 59.5297 102.066 46.3637C103.637 40.0079 107.234 34.5186 112.193 30.9073C117.136 27.31 122.839 26.0116 128.258 27.2515C138.343 29.5615 144.818 40.3422 143.317 52.3267C143.292 52.5301 143.433 52.7113 143.635 52.7308C143.835 52.7503 144.018 52.6026 144.044 52.402C145.593 40.0441 138.881 28.9234 128.438 26.5298C122.814 25.2425 116.897 26.5828 111.779 30.311C106.676 34.0254 102.975 39.6679 101.361 46.1993C98.4549 57.947 103.499 70.1934 112.438 74.9721H112.435Z" fill="#5A19E7"/>
<path d="M165.491 53.5917C166.814 42.3707 163.161 23.7322 145.548 18.608C143.72 17.9949 141.881 17.6299 140.095 17.524C140.095 17.524 140.092 17.524 140.09 17.524C137.163 17.3513 134.372 17.864 131.978 19.1151C131.978 19.1151 126.484 9.57431 108.819 15.3255C105.986 16.2478 103.446 17.6745 101.181 19.4968C84.5674 29.8178 84.3112 52.753 90.02 69.8479C90.4537 71.1463 91.7182 71.9572 93.0814 71.8012C102.806 70.7005 108.867 72.5061 108.867 72.5061C108.867 72.5061 104.89 68.6915 102.463 62.9653C102.204 62.1851 101.947 61.2879 101.728 60.282C101.894 60.3182 101.99 60.3405 101.99 60.3405C101.711 59.6634 101.497 58.8971 101.339 58.0612C101.136 56.5537 101.029 54.8679 101.086 53.0122C101.519 45.6671 105.012 36.2879 111.579 31.1052C112.776 30.2302 113.956 29.5113 115.049 28.9262C116.257 28.3466 117.542 27.898 118.908 27.6082C119.217 29.6311 123.752 43.6107 143.362 54.2493C145.221 52.7112 149.764 52.0508 150.665 55.9519C151.566 59.8529 145.734 67.7357 140.501 62.6143C139.512 63.2412 138.667 63.9852 137.938 64.7905C138.107 64.888 138.281 64.9744 138.453 65.0663C137.138 66.989 135.299 70.2296 134.629 73.264C134.395 74.3229 135.31 75.2591 136.375 75.0724C147.018 73.225 154.366 73.551 157.92 73.9356C159.224 74.0777 160.399 73.1108 160.551 71.7956C161.235 65.7964 163.561 62.7731 164.891 56.9689C165.138 55.9574 165.341 54.8345 165.485 53.6224C165.485 53.6085 165.488 53.5973 165.491 53.5862V53.5917Z" fill="#5A19E7"/>
<path d="M122.544 52.1428C125.368 46.9238 131.818 44.8953 136.918 47.6204C142.019 50.3484 143.872 56.8129 141.047 62.0319C138.222 67.2509 131.773 69.2795 126.672 66.5543C121.572 63.8264 119.719 57.3618 122.544 52.1428ZM124.09 52.9704C121.738 57.3173 123.279 62.7034 127.529 64.9744C131.779 67.2453 137.149 65.5568 139.501 61.2099C141.853 56.8631 140.312 51.4769 136.062 49.2059C131.812 46.935 126.442 48.6236 124.09 52.9704Z" fill="#FF634D"/>
<path d="M113.689 45.2632C117.007 47.0353 118.947 50.3874 119.124 53.9513C118.48 54.6061 117.882 55.3334 117.246 55.9798C117.84 52.3547 116.181 48.6347 112.833 46.8459C108.583 44.5749 103.212 46.2635 100.86 50.6131C98.5085 54.96 100.049 60.3462 104.299 62.6171C108.549 64.8881 113.92 63.1995 116.271 58.8526C116.59 58.2647 116.835 57.6545 117.015 57.0387C117.198 57.1641 117.381 57.2867 117.559 57.4176C117.882 57.6573 118.175 57.9415 118.482 58.2062C118.299 58.705 118.08 59.1982 117.82 59.6774C114.996 64.8964 108.546 66.925 103.446 64.1998C98.3452 61.4719 96.492 55.0073 99.3168 49.7883C102.142 44.5693 108.591 42.5408 113.692 45.2659L113.689 45.2632Z" fill="#FF634D"/>
<path d="M140.667 23.1248C142.402 21.0099 146.832 16.2283 151.899 15.5652C152.211 15.5234 152.521 15.6488 152.704 15.9051C157.785 23.0356 155.774 29.9432 154.591 32.7269C154.332 33.3343 153.538 33.4541 153.124 32.9581C148.758 27.7224 143.34 25.3344 141.025 24.4985C140.467 24.2979 140.284 23.5957 140.67 23.1276L140.667 23.1248Z" fill="#FF634D"/>
<path d="M121.989 18.7668C121.107 16.2145 118.651 10.3295 114.137 8.09197C113.852 7.95265 113.511 7.96937 113.244 8.15606C105.933 13.2357 105.341 20.3495 105.454 23.3617C105.479 24.0249 106.197 24.3982 106.772 24.0583C112.731 20.5418 118.663 20.0152 121.149 19.965C121.758 19.9539 122.186 19.3436 121.989 18.7696V18.7668Z" fill="#FF634D"/>
<path d="M109.031 59.8613C109.86 59.8613 110.532 58.9843 110.532 57.9024C110.532 56.8206 109.86 55.9435 109.031 55.9435C108.202 55.9435 107.53 56.8206 107.53 57.9024C107.53 58.9843 108.202 59.8613 109.031 59.8613Z" fill="#5A19E7"/>
<path d="M130.153 62.4387C130.983 62.4387 131.655 61.5617 131.655 60.4799C131.655 59.398 130.983 58.521 130.153 58.521C129.324 58.521 128.652 59.398 128.652 60.4799C128.652 61.5617 129.324 62.4387 130.153 62.4387Z" fill="#5A19E7"/>
<path d="M115.089 39.7933C112.354 37.3552 108.262 37.5614 105.919 40.4342C105.355 41.1253 106.344 42.1172 106.916 41.4206C108.757 39.1636 111.881 38.8069 114.094 40.7797C114.768 41.3788 115.765 40.3952 115.091 39.7933H115.089Z" fill="#5A19E7"/>
<path d="M128.621 40.8522C131.714 38.8738 135.719 39.7237 137.572 42.9281C138.017 43.7 136.882 44.522 136.431 43.7445C134.975 41.2284 131.95 40.3841 129.447 41.9835C128.686 42.4684 127.858 41.3426 128.621 40.855V40.8522Z" fill="white"/>
<path d="M147.567 130.835C147.522 130.835 147.474 130.826 147.432 130.807C147.252 130.732 147.167 130.528 147.243 130.35C147.336 130.13 156.636 108.189 158.813 100.68C161.657 90.8605 159.678 84.8557 152.58 81.7767C144.877 78.4358 137.817 83.1588 135.158 84.9365C134.846 85.1455 134.601 85.3099 134.409 85.4242C133.691 85.8533 133.111 85.948 132.685 85.7084C132.119 85.3879 132.116 84.6467 132.116 84.5659L132.395 72.2415C132.401 72.052 132.556 71.9016 132.747 71.9016H132.756C132.95 71.9071 133.105 72.066 133.099 72.2582L132.821 84.5799C132.821 84.6802 132.86 85.0062 133.037 85.1065C133.218 85.2068 133.584 85.1065 134.046 84.8306C134.22 84.7248 134.46 84.5659 134.764 84.3625C137.51 82.5263 144.804 77.6444 152.862 81.1414C160.241 84.343 162.409 90.7964 159.489 100.875C157.303 108.423 147.987 130.4 147.891 130.62C147.835 130.754 147.702 130.835 147.567 130.835Z" fill="#5A19E7"/>
<path d="M137.583 155.252C135.077 155.252 132.122 154.319 130.384 150.568C127.819 145.104 128.464 134.697 132.3 119.642C135.147 108.468 138.789 98.7573 138.825 98.6598C138.893 98.4786 139.096 98.3867 139.279 98.4563C139.462 98.5232 139.555 98.7238 139.484 98.905C139.341 99.2895 125.053 137.556 131.024 150.279C132.494 153.452 135.048 154.873 138.625 154.503C140.664 154.291 142.661 153.491 144.396 152.187C147.201 150.084 152.752 145.522 158.63 140.696C165.71 134.881 173.737 128.288 179.021 124.284C179.175 124.167 179.395 124.198 179.513 124.348C179.632 124.501 179.604 124.719 179.449 124.836C174.174 128.831 166.155 135.419 159.078 141.231C153.194 146.063 147.638 150.627 144.821 152.742C142.982 154.124 140.864 154.971 138.696 155.197C138.338 155.233 137.963 155.255 137.58 155.255L137.583 155.252Z" fill="#5A19E7"/>
<path d="M139.907 134.518C139.76 134.518 139.622 134.427 139.571 134.279C139.512 134.101 139.605 133.908 139.783 133.841C139.831 133.822 140.045 133.713 140.312 133.579C149.863 128.812 162.728 123.25 177.517 117.496C177.697 117.426 177.902 117.513 177.973 117.694C178.043 117.875 177.956 118.076 177.773 118.145C163.007 123.894 150.161 129.444 140.628 134.201C140.135 134.446 140.067 134.479 140.014 134.496C139.977 134.507 139.94 134.513 139.904 134.513L139.907 134.518Z" fill="#5A19E7"/>
<path d="M205.827 140.097C205.779 140.097 205.728 140.097 205.678 140.089C205.664 140.089 205.647 140.086 205.633 140.08C205.354 140.013 205.024 139.949 204.647 139.874C202.318 139.411 198.451 138.642 193.669 135.586C193.44 135.873 193.111 136.084 192.708 136.199C191.675 136.494 189.636 136.302 185.8 133.713C183.67 132.275 181.665 129.854 179.837 126.516C178.485 124.041 177.762 122.016 177.731 121.932C177.666 121.751 177.764 121.553 177.948 121.489C178.131 121.425 178.331 121.523 178.395 121.704C178.424 121.784 181.327 129.857 186.194 133.142C189.996 135.708 191.782 135.742 192.511 135.533C192.863 135.432 193.111 135.235 193.232 134.962C193.274 134.867 193.356 134.794 193.455 134.766C193.556 134.736 193.663 134.753 193.747 134.811C198.558 137.957 202.453 138.732 204.782 139.194C205.157 139.269 205.489 139.333 205.768 139.4C206.016 139.42 206.148 139.317 206.193 139.085C206.294 138.562 205.824 137.617 204.489 137.249C202.191 136.614 198.023 134.003 196.795 132.437C196.702 132.32 196.696 132.156 196.781 132.03C196.865 131.905 197.02 131.846 197.167 131.888C201.997 133.184 205.061 131.863 206.455 130.963C207.936 130.004 208.728 128.801 208.838 128.087C208.824 128.065 208.68 127.92 208.362 127.862C208.131 127.817 207.317 127.745 206.542 128.645C205.869 129.43 204.596 129.932 203.143 129.982C201.324 130.049 199.622 129.414 198.465 128.243C197.057 126.822 193.762 123.493 195.699 121.575C196.381 121.001 197.085 121.054 197.834 121.107C198.778 121.177 199.848 121.258 201.397 120.316C203.115 119.274 203.011 117.719 202.887 117.098C202.695 116.147 202.163 115.573 201.853 115.523C201.712 115.501 201.526 115.902 201.363 116.256C200.881 117.298 200.079 119.04 197.203 118.159C196.499 117.945 195.727 117.621 194.835 117.248C190.863 115.585 184.862 113.074 177.776 118.137C177.618 118.248 177.398 118.215 177.283 118.059C177.17 117.903 177.204 117.686 177.362 117.571C184.772 112.28 190.99 114.882 195.108 116.607C195.984 116.972 196.738 117.29 197.409 117.496C199.69 118.195 200.236 117.014 200.718 115.969C201 115.362 201.287 114.732 201.96 114.838C202.67 114.949 203.348 115.844 203.574 116.964C203.892 118.555 203.213 120.029 201.76 120.912C200.014 121.971 198.721 121.874 197.775 121.804C197.074 121.751 196.612 121.718 196.17 122.088C195.192 123.058 196.046 124.811 198.963 127.756C199.983 128.784 201.493 129.341 203.115 129.286C204.354 129.241 205.461 128.823 206.002 128.193C206.945 127.093 208.145 126.956 208.914 127.31C209.35 127.511 209.587 127.851 209.528 128.196C209.392 129.082 208.508 130.464 206.835 131.545C205.461 132.434 202.588 133.702 198.172 132.838C199.772 134.22 202.78 136.054 204.675 136.58C206.289 137.029 207.066 138.275 206.88 139.219C206.773 139.768 206.365 140.103 205.816 140.103L205.827 140.097Z" fill="#5A19E7"/>
<path d="M99.4775 103.321C99.286 103.321 99.1282 103.168 99.1254 102.979C99.0747 99.4121 96.9709 95.5863 96.9512 95.5473C96.8582 95.3773 96.9202 95.1655 97.0892 95.0736C97.2582 94.9816 97.475 95.0429 97.568 95.2101C97.6581 95.3717 99.776 99.2226 99.8295 102.965C99.8295 103.157 99.6774 103.316 99.4831 103.319H99.4775V103.321Z" fill="#5A19E7"/>
<path d="M115.849 96.7371C115.793 96.7371 115.736 96.7232 115.683 96.6953C111.388 94.4299 109.135 88.4725 109.042 88.2189C108.974 88.0378 109.067 87.8372 109.25 87.7731C109.433 87.7062 109.636 87.7982 109.701 87.9793C109.723 88.0378 111.96 93.9423 116.015 96.0823C116.187 96.1714 116.252 96.3832 116.159 96.5532C116.097 96.6702 115.973 96.7371 115.849 96.7371Z" fill="#5A19E7"/>
<path d="M126.87 97.0157C126.701 97.0157 126.551 96.8959 126.523 96.726C126.492 96.5365 126.622 96.3581 126.813 96.3247C126.855 96.3191 131.027 95.5891 135.254 91.6769C135.395 91.546 135.62 91.5515 135.752 91.6936C135.885 91.833 135.879 92.0531 135.736 92.1868C131.342 96.2523 127.109 96.9851 126.929 97.013C126.909 97.0157 126.889 97.0185 126.87 97.0185V97.0157Z" fill="#5A19E7"/>
<path d="M121.69 88.8932C122.037 88.8236 122.383 88.9378 122.653 89.1719C122.758 89.2638 122.907 89.2861 123.036 89.2248C123.363 89.0744 123.726 89.0604 124.039 89.2248C124.619 89.5285 124.799 90.3115 124.442 90.9775C124.281 91.2784 124.036 91.4986 123.763 91.6267H123.769L122.614 92.2202C122.479 92.2899 122.313 92.2648 122.203 92.1617L121.287 91.2951H121.293C121.057 91.0945 120.873 90.8075 120.803 90.462C120.648 89.7236 121.045 89.0214 121.687 88.8904L121.69 88.8932Z" fill="#FF634D"/>
<path d="M132.466 80.3918C127.965 83.1699 122.831 83.3482 118.243 80.9045V84.7191C122.873 86.7839 127.897 86.6418 132.466 84.2956V80.3946V80.3918Z" fill="#5A19E7"/>
<path d="M89.6314 127.02C85.6012 127.02 84.7253 125.117 84.5366 124.267C84.0972 122.292 85.773 119.987 88.4401 118.906C93.4617 116.872 94.9459 119.714 95.005 119.834C95.1768 120.179 95.0332 120.597 94.684 120.767C94.3376 120.937 93.9207 120.798 93.7461 120.461C93.6926 120.366 92.69 118.689 88.9724 120.196C86.7333 121.105 85.6575 122.827 85.911 123.966C86.1644 125.106 87.7613 125.719 90.189 125.613C90.5664 125.591 90.9072 125.892 90.9241 126.276C90.941 126.661 90.6425 126.987 90.2538 127.003C90.0398 127.015 89.8314 127.017 89.6314 127.017V127.02Z" fill="#FF624D"/>
<path d="M129.861 119.575C129.796 119.575 129.731 119.566 129.666 119.547C129.292 119.441 129.075 119.056 129.182 118.686C129.235 118.496 134.755 99.4901 142.461 88.478C148.795 79.4249 153.842 80.846 154.056 80.9101C154.428 81.0243 154.636 81.4144 154.521 81.7822C154.405 82.1472 154.017 82.3507 153.648 82.2448C153.611 82.2364 152.558 81.9717 150.845 82.6544C149.201 83.312 146.61 84.995 143.619 89.2722C136.048 100.095 130.59 118.881 130.537 119.07C130.449 119.377 130.168 119.578 129.861 119.578V119.575Z" fill="#FF624D"/>
<path d="M64.8473 129.667C64.3403 129.667 63.8672 129.645 63.4447 129.6C59.5553 129.18 58.6568 126.145 58.6202 126.014C58.5667 125.828 58.6766 125.638 58.8653 125.585C59.0511 125.532 59.2455 125.641 59.299 125.828C59.33 125.936 60.1214 128.539 63.5207 128.907C67.0046 129.283 72.812 128.004 73.4119 127.329C72.9444 126.279 71.1334 126.268 71.1053 126.268C70.9109 126.268 70.7532 126.112 70.7532 125.92C70.7532 125.727 70.9081 125.571 71.1024 125.571H71.1081C71.2658 125.571 73.5499 125.599 74.1103 127.187C74.116 127.199 74.1188 127.212 74.1216 127.224C74.1526 127.355 74.1469 127.555 73.9554 127.767C73.1049 128.714 68.2354 129.665 64.8444 129.665L64.8473 129.667Z" fill="#5A19E7"/>
<path d="M68.4802 131.501C65.2977 131.501 63.7262 129.62 63.6614 129.539C63.5403 129.389 63.5628 129.171 63.7149 129.049C63.867 128.929 64.0867 128.951 64.2106 129.099C64.2697 129.171 65.6498 130.801 68.4831 130.801C68.5366 130.801 68.5929 130.801 68.6464 130.801C71.8965 130.729 74.2933 129.545 74.665 128.926C74.7664 128.762 74.7242 128.698 74.7073 128.675C74.5721 128.48 73.9018 128.249 72.6682 128.45C72.4795 128.483 72.2964 128.352 72.2626 128.163C72.2317 127.973 72.3612 127.795 72.5527 127.761C73.8708 127.544 74.9185 127.745 75.2874 128.282C75.4029 128.452 75.5578 128.806 75.2677 129.283C74.6678 130.275 71.8064 131.426 68.6605 131.495C68.6013 131.495 68.5394 131.495 68.4802 131.495V131.501Z" fill="#5A19E7"/>
<path d="M72.3274 132.423C72.3049 132.423 72.2823 132.423 72.257 132.423C70.325 132.387 69.2998 131.395 69.2576 131.353C69.1196 131.217 69.1196 130.996 69.2576 130.86C69.3956 130.723 69.6181 130.723 69.7532 130.86C69.7701 130.877 70.6432 131.696 72.2711 131.729C72.2908 131.729 72.3105 131.729 72.3302 131.729C73.9665 131.729 75.4311 130.447 75.524 130.032C75.3776 129.974 74.9016 129.988 74.3721 130.147C74.1862 130.202 73.9891 130.096 73.9327 129.912C73.8764 129.729 73.9834 129.534 74.1693 129.478C74.4848 129.383 75.555 129.107 76.0253 129.528C76.1999 129.684 76.2675 129.907 76.2197 130.158C76.0479 131.027 74.1721 132.426 72.3274 132.426V132.423Z" fill="#5A19E7"/>
<path d="M68.3648 126.808C65.326 126.808 60.8169 125.694 58.0118 122.509C57.8851 122.364 57.8992 122.144 58.0456 122.019C58.1921 121.893 58.4146 121.907 58.5413 122.052C62.1097 126.103 68.8098 126.627 70.6827 125.763C70.9165 125.655 70.9813 125.56 70.9756 125.538C70.8714 124.25 69.2379 123.799 67.3453 123.275C66.2328 122.966 65.0809 122.648 64.0727 122.124C61.476 120.776 56.9163 116.983 56.1727 116.356C56.0657 116.401 55.846 116.535 55.6292 116.839C55.3081 117.287 54.8349 118.34 55.2884 120.38C56.0544 123.835 59.1018 125.596 59.1327 125.613C59.3017 125.708 59.3609 125.922 59.2623 126.09C59.1665 126.257 58.9497 126.315 58.7835 126.22C58.6483 126.142 55.4348 124.295 54.6012 120.531C53.8464 117.117 55.3982 115.997 55.7193 115.808C56.0516 115.61 56.3473 115.587 56.536 115.743C56.5896 115.788 61.7013 120.101 64.405 121.506C65.3485 121.996 66.4638 122.306 67.5396 122.604C69.5956 123.172 71.5389 123.71 71.6797 125.457C71.7135 125.655 71.6685 126.078 70.9841 126.396C70.4236 126.655 69.497 126.808 68.3677 126.808H68.3648Z" fill="#5A19E7"/>
<path d="M78.38 128.962L50.3908 103.288C49.7993 102.747 48.8671 102.772 48.3066 103.346L46.4873 105.211C46.2056 105.498 46.0592 105.877 46.0704 106.278C46.0817 106.679 46.2535 107.047 46.552 107.317L58.7751 118.435C59.1075 118.43 59.4398 118.413 59.7721 118.396L47.028 106.804C46.8703 106.662 46.7802 106.467 46.7745 106.256C46.7689 106.044 46.8449 105.846 46.9942 105.693L48.8136 103.829C49.1093 103.528 49.5994 103.514 49.912 103.798L77.9012 129.472C78.211 129.754 78.2391 130.225 77.966 130.542L76.3775 132.398C76.2367 132.56 76.0424 132.657 75.8283 132.671C75.6115 132.682 75.4059 132.613 75.2481 132.468L74.2568 131.565C74.0793 131.726 73.8484 131.841 73.5639 131.88L74.7722 132.98C75.051 133.234 75.403 133.37 75.7776 133.37C75.8086 133.37 75.8424 133.37 75.8734 133.368C76.2818 133.343 76.6535 133.159 76.9154 132.849L78.5039 130.994C79.0193 130.392 78.9658 129.497 78.38 128.962Z" fill="#5A19E7"/>
<path d="M58.9441 112.954C58.2795 113.55 57.643 114.175 57.0318 114.824C56.722 115.153 57.2205 115.646 57.5303 115.317C58.1415 114.668 58.7808 114.046 59.4426 113.447C59.7778 113.146 59.2793 112.653 58.9441 112.954Z" fill="#5A19E7"/>
<path d="M49.6472 104.308L58.2681 112.121C58.4399 112.277 58.454 112.545 58.2935 112.715L56.6938 114.448C56.5333 114.621 56.2629 114.632 56.0911 114.473L47.4673 106.526C47.2927 106.364 47.2871 106.091 47.4561 105.921L49.0586 104.322C49.2191 104.16 49.4782 104.155 49.6472 104.308Z" fill="#5A19E7"/>
<path d="M48.7798 106.579L50.112 107.863C50.2415 107.989 50.4443 107.983 50.5654 107.849L51.0442 107.328C51.1681 107.192 51.1625 106.977 51.0329 106.846L49.7064 105.542C49.5769 105.414 49.3713 105.42 49.2474 105.556L48.7629 106.097C48.639 106.233 48.6475 106.451 48.7798 106.576V106.579Z" fill="white"/>
<path d="M73.3047 124.967C73.2456 124.967 73.1864 124.953 73.1329 124.922C72.9639 124.827 72.9048 124.615 72.9977 124.448C73.0203 124.406 75.3015 120.313 73.6652 116.415C72.9499 114.71 71.7642 113.291 70.7193 112.04C69.2153 110.24 67.9142 108.685 68.2212 106.752C68.5366 104.768 68.1423 104.018 67.8916 103.898C67.7114 103.812 67.4241 103.954 67.1228 104.277C65.1344 106.924 65.9681 109.245 66.6384 111.115C66.9059 111.859 67.1566 112.561 67.1988 113.194C67.3593 115.626 63.6389 116.03 63.4812 116.047C63.2897 116.069 63.1151 115.927 63.0953 115.735C63.0756 115.543 63.2165 115.373 63.4108 115.353C63.4418 115.351 66.6158 115.002 66.4975 113.238C66.4609 112.701 66.2356 112.074 65.9765 111.346C65.2865 109.427 64.3458 106.796 66.5708 103.845C66.5764 103.837 66.5848 103.829 66.5933 103.82C67.1284 103.241 67.7142 103.04 68.2014 103.271C68.9647 103.634 69.2294 104.943 68.9224 106.86C68.6633 108.482 69.8716 109.925 71.2685 111.594C72.3443 112.882 73.5667 114.342 74.3214 116.145C76.0929 120.363 73.7187 124.61 73.6173 124.788C73.5526 124.902 73.4343 124.967 73.3104 124.967H73.3047Z" fill="#5A19E7"/>
<path d="M58.2203 115.392L59.4173 114.203C59.7215 113.902 60.2087 113.89 60.5241 114.177L67.7256 120.681C68.3593 121.252 67.7679 122.272 66.9455 122.024C66.2442 121.812 65.4866 121.548 64.7515 121.224C62.8138 120.372 59.6172 117.719 58.2597 116.551C57.9105 116.251 57.8908 115.718 58.2175 115.392H58.2203Z" fill="#5A19E7"/>
<path d="M76.7014 129.637C76.6507 130.138 76.4311 130.918 75.6059 131.492C75.4819 131.579 75.4707 131.757 75.5861 131.855L75.7326 131.983C75.8312 132.069 75.9804 132.058 76.0649 131.96L77.6027 130.222C77.69 130.124 77.6787 129.977 77.5801 129.893L77.0929 129.475C76.9465 129.35 76.724 129.444 76.7043 129.634L76.7014 129.637Z" fill="#5A19E7"/>
<path d="M71.7868 99.3563C71.3503 99.2282 71.1644 99.8997 71.6009 100.028C73.6118 100.619 74.8088 102.466 74.4652 104.531C74.392 104.968 75.0707 105.158 75.1439 104.715C75.5495 102.279 74.1948 100.061 71.7868 99.3535V99.3563Z" fill="#FF634D"/>
<path d="M76.0874 98.3616C75.6762 98.1776 75.3185 98.7795 75.7326 98.9634C76.9464 99.504 77.7068 100.761 77.5041 102.084C77.4365 102.522 78.1152 102.711 78.1828 102.268C78.4307 100.652 77.6139 99.0414 76.0874 98.3616Z" fill="#FF634D"/>
<path d="M193.559 135.446C193.511 135.446 193.46 135.435 193.412 135.416C193.235 135.335 193.156 135.129 193.238 134.956C193.266 134.897 195.933 128.971 193.947 124.51C193.7 124.214 193.441 124.075 193.266 124.139C193.055 124.217 192.711 124.73 192.77 126.159C192.88 128.815 191.734 130.082 191.683 130.135C191.551 130.277 191.328 130.286 191.185 130.158C191.041 130.027 191.033 129.807 191.162 129.664C191.171 129.656 192.162 128.536 192.063 126.187C191.979 124.175 192.624 123.632 193.015 123.487C193.505 123.306 194.055 123.534 194.519 124.108C194.539 124.131 194.553 124.156 194.564 124.184C195.694 126.68 195.443 129.559 195.035 131.534C194.595 133.657 193.902 135.182 193.871 135.246C193.812 135.374 193.686 135.449 193.55 135.449L193.559 135.446Z" fill="#5A19E7"/>
<path d="M191.069 133.774C191.044 133.774 191.018 133.774 190.993 133.766C190.804 133.724 190.683 133.538 190.725 133.351L190.745 133.27C191.125 131.768 191.714 128.073 188.948 126.234C188.869 126.19 188.562 126.017 188.439 126.117C188.157 126.343 188.157 127.522 188.577 128.703C188.914 129.659 188.191 132.094 188.106 132.367C188.05 132.551 187.853 132.657 187.667 132.599C187.481 132.543 187.374 132.348 187.433 132.164C187.723 131.211 188.109 129.492 187.912 128.932C187.546 127.903 187.267 126.159 187.994 125.577C188.23 125.387 188.653 125.245 189.326 125.649C192.477 127.745 191.844 131.796 191.427 133.443L191.413 133.504C191.376 133.666 191.23 133.777 191.069 133.777V133.774Z" fill="#5A19E7"/>
<path d="M62.8335 119.249L64.481 120.653C64.6416 120.79 64.8922 120.784 65.0415 120.636L65.6329 120.068C65.7878 119.92 65.7794 119.683 65.6189 119.541L63.9769 118.117C63.8164 117.978 63.5601 117.984 63.4108 118.134L62.8137 118.725C62.6617 118.875 62.6701 119.109 62.8335 119.249Z" fill="white"/>
<path d="M54.5505 67.928C54.3618 67.928 54.19 67.8026 54.1422 67.6159C53.1592 63.8709 54.1675 62.6978 57.4993 59.5603C58.7864 58.2925 58.8455 55.7735 57.626 53.7116C56.2967 51.4629 53.9647 50.5517 51.3821 51.2706C49.6838 51.7443 48.47 52.6304 47.7743 53.9038C46.4591 56.3085 47.3885 59.3235 47.3997 59.3541C47.4702 59.5742 47.3462 59.8083 47.1237 59.878C46.9012 59.9476 46.6647 59.825 46.5943 59.6049C46.552 59.4683 45.5494 56.2194 47.0336 53.5081C47.8419 52.0285 49.2304 51.0059 51.154 50.4709C54.1309 49.6406 56.8234 50.6966 58.3583 53.2936C59.789 55.715 59.6764 58.6045 58.0907 60.1622C54.8265 63.2356 54.0915 64.0883 54.9617 67.4097C55.0209 67.6326 54.8857 67.8611 54.6576 67.9196C54.6209 67.928 54.5872 67.9336 54.5505 67.9336V67.928Z" fill="#FFACA1"/>
<path d="M56.125 74.6963C57.2978 74.6963 58.2486 73.7556 58.2486 72.5953C58.2486 71.435 57.2978 70.4943 56.125 70.4943C54.9522 70.4943 54.0015 71.435 54.0015 72.5953C54.0015 73.7556 54.9522 74.6963 56.125 74.6963Z" fill="#FFACA1"/>
<path d="M186.022 45.8816C185.96 45.8816 185.898 45.8677 185.836 45.8399C185.625 45.7395 185.54 45.4888 185.642 45.2826C187.354 41.8023 188.889 41.5599 193.483 41.3147C195.293 41.1781 196.992 39.3029 197.42 36.9483C197.887 34.3848 196.71 32.1918 194.274 31.0773C192.674 30.3472 191.167 30.2386 189.804 30.7596C187.225 31.7432 185.952 34.6328 185.94 34.6606C185.85 34.8724 185.6 34.9727 185.385 34.8808C185.171 34.7888 185.07 34.5436 185.163 34.3318C185.219 34.2009 186.591 31.0856 189.5 29.9794C191.086 29.3748 192.812 29.489 194.629 30.3194C197.437 31.6011 198.791 34.134 198.251 37.096C197.747 39.8546 195.767 41.9806 193.536 42.1478C189.035 42.3874 187.917 42.5602 186.399 45.6476C186.326 45.7953 186.177 45.8816 186.019 45.8816H186.022Z" fill="#FFACA1"/>
<path d="M183.879 52.4438C185.051 52.4438 186.002 51.5031 186.002 50.3428C186.002 49.1825 185.051 48.2418 183.879 48.2418C182.706 48.2418 181.755 49.1825 181.755 50.3428C181.755 51.5031 182.706 52.4438 183.879 52.4438Z" fill="#FFACA1"/>
<path d="M193.238 93.5243C194.41 93.5243 195.361 92.5836 195.361 91.4233C195.361 90.263 194.41 89.3223 193.238 89.3223C192.065 89.3223 191.114 90.263 191.114 91.4233C191.114 92.5836 192.065 93.5243 193.238 93.5243Z" fill="#FFACA1"/>
<path d="M118.719 140.27C112.878 140.27 109.8 135.48 109.76 135.418C109.659 135.254 109.709 135.04 109.876 134.939C110.042 134.839 110.259 134.889 110.36 135.051C110.557 135.363 115.275 142.66 124.405 138.093C124.58 138.007 124.791 138.077 124.878 138.247C124.966 138.419 124.895 138.628 124.724 138.715C122.479 139.838 120.476 140.27 118.722 140.27H118.719Z" fill="white"/>
<path d="M99.6211 141.903C99.4408 141.903 99.2887 141.769 99.2718 141.588C99.2521 141.395 99.3958 141.225 99.5873 141.206C99.6267 141.203 103.46 140.807 105.209 138.67C105.33 138.52 105.552 138.497 105.704 138.617C105.857 138.737 105.879 138.957 105.758 139.108C103.82 141.476 99.8267 141.883 99.6577 141.9C99.6464 141.9 99.6351 141.9 99.6239 141.9L99.6211 141.903Z" fill="white"/>
<path d="M125.971 177.728C125.923 177.728 125.873 177.717 125.828 177.697C117.722 174.086 112.709 169.054 109.929 165.467C106.91 161.572 105.828 158.571 105.783 158.443C105.719 158.262 105.814 158.064 106 158C106.183 157.936 106.386 158.03 106.448 158.212C106.49 158.331 110.887 170.277 126.115 177.062C126.292 177.14 126.371 177.346 126.292 177.522C126.233 177.65 126.106 177.728 125.971 177.728Z" fill="white"/>
<path d="M129.48 179.33C129.438 179.33 129.396 179.322 129.356 179.308L127.9 178.762C127.717 178.692 127.627 178.491 127.695 178.313C127.765 178.132 127.965 178.043 128.148 178.11L129.604 178.656C129.787 178.725 129.877 178.926 129.81 179.104C129.756 179.244 129.621 179.33 129.48 179.33Z" fill="white"/>
<path d="M121.851 186.157C121.755 186.157 121.659 186.118 121.589 186.043C117.998 182.108 115.286 175.733 115.258 175.669C115.182 175.49 115.266 175.287 115.446 175.214C115.627 175.139 115.832 175.226 115.905 175.401C115.931 175.465 118.601 181.732 122.107 185.577C122.237 185.719 122.225 185.939 122.082 186.07C122.014 186.132 121.93 186.16 121.845 186.16L121.851 186.157Z" fill="white"/>
<path d="M119.798 70.5194C119.767 70.5194 119.736 70.5166 119.705 70.5083C119.516 70.4581 119.406 70.2659 119.457 70.082C119.629 69.455 119.586 68.9729 119.333 68.6469C118.93 68.1259 118.091 68.1175 118.083 68.1175C117.888 68.1175 117.73 67.9615 117.73 67.7692C117.73 67.5769 117.885 67.4209 118.08 67.4209C118.156 67.4209 119.277 67.4348 119.885 68.2178C120.279 68.725 120.364 69.4132 120.133 70.2631C120.091 70.4191 119.947 70.5194 119.792 70.5194H119.798Z" fill="#5A19E7"/>
<path d="M106.29 41.6435C106.127 41.6435 105.961 41.5878 105.828 41.4736C105.535 41.22 105.504 40.7825 105.758 40.49C109.064 36.7283 113.278 38.2942 115.046 39.6485C115.353 39.8825 115.41 40.3228 115.173 40.6265C114.936 40.9302 114.494 40.9859 114.187 40.7519C114.018 40.6237 110.073 37.7091 106.822 41.4067C106.684 41.5655 106.487 41.6463 106.29 41.6463V41.6435Z" fill="#5A19E7"/>
<path d="M137.062 44.0817C136.828 44.0817 136.6 43.9675 136.465 43.7585C133.668 39.3782 129.613 41.8163 129.441 41.9222C129.111 42.1256 128.678 42.0281 128.469 41.7021C128.264 41.3761 128.362 40.9469 128.692 40.7408C128.745 40.7073 134.116 37.4778 137.651 43.0145C137.859 43.3405 137.761 43.7696 137.431 43.9758C137.313 44.0483 137.183 44.0845 137.056 44.0845L137.062 44.0817Z" fill="white"/>
<path d="M119.553 59.4433C119.471 59.4433 119.389 59.4154 119.325 59.3597C116.584 57.0274 116.584 56.746 116.584 56.576C116.584 56.4255 116.584 56.1441 119.147 53.5388C119.282 53.3995 119.505 53.3995 119.646 53.5332C119.786 53.667 119.786 53.8871 119.651 54.0264C118.674 55.0212 117.609 56.1692 117.331 56.5649C117.632 56.9327 118.775 57.9748 119.781 58.8302C119.927 58.9556 119.944 59.1758 119.817 59.3207C119.747 59.4015 119.648 59.4405 119.55 59.4405L119.553 59.4433Z" fill="#5A19E7"/>
<path d="M143.45 61.0789C143.402 61.0789 143.351 61.0678 143.303 61.0483C143.126 60.9675 143.047 60.7613 143.128 60.5857C144.232 58.1838 146.263 57.3897 146.35 57.3563C146.531 57.2866 146.736 57.3758 146.807 57.5569C146.877 57.7352 146.787 57.9386 146.604 58.0055C146.584 58.0139 144.748 58.7411 143.771 60.8727C143.711 61.0009 143.585 61.0762 143.45 61.0762V61.0789Z" fill="#5A19E7"/>
<path d="M111.067 53.6726C110.861 53.6726 110.659 53.5834 110.518 53.4135C110.447 53.3299 108.955 51.6106 106.217 53.0986C106.054 53.1878 105.857 53.2101 105.676 53.1571C105.496 53.1042 105.344 52.9816 105.257 52.8172L104.882 52.1206C104.699 51.7806 104.829 51.3599 105.172 51.1787C105.516 50.9976 105.941 51.1258 106.124 51.4657L106.18 51.5688C108.904 50.4153 110.904 51.658 111.616 52.5413C111.858 52.8422 111.808 53.2797 111.506 53.5193C111.377 53.6224 111.222 53.6726 111.067 53.6726Z" fill="#5A19E7"/>
<path d="M133.046 56.6652C132.88 56.6652 132.719 56.6067 132.592 56.5008C130.201 54.5001 128.39 55.9073 128.314 55.9658C128.013 56.2054 127.571 56.1636 127.326 55.8683C127.081 55.5729 127.117 55.1382 127.413 54.893C128.292 54.1657 130.5 53.341 132.936 55.0045L133.012 54.9153C133.26 54.6171 133.705 54.5781 134.003 54.8206C134.302 55.0658 134.344 55.506 134.099 55.8014L133.592 56.4088C133.471 56.5537 133.299 56.6429 133.111 56.6596C133.091 56.6596 133.068 56.6596 133.049 56.6596L133.046 56.6652Z" fill="#5A19E7"/>
<path d="M184.287 119.839C184.217 119.839 184.149 119.82 184.087 119.778C182.426 118.638 180.035 119.363 180.012 119.371C179.826 119.427 179.629 119.327 179.57 119.143C179.511 118.959 179.615 118.764 179.798 118.705C179.908 118.672 182.538 117.869 184.487 119.204C184.648 119.313 184.687 119.53 184.577 119.689C184.51 119.786 184.4 119.839 184.287 119.839Z" fill="#5A19E7"/>
</g>
<defs>
<clipPath id="clip0_23_2427">
<rect width="168" height="184" fill="white" transform="translate(46 8)"/>
</clipPath>
</defs>
</svg>
